<svg xmlns="http://www.w3.org/2000/svg" width="11.695" height="9.659" viewBox="0 0 11.695 9.659"><defs><style>.a{fill:#eb652e;}</style></defs><g transform="translate(0 0)"><path class="a" d="M71.777,128.574v-1.821l-.978.175v.75H69.033v-.75l-.978-.175v1.821H66.893l-1.327,2.9v2.607a.431.431,0,0,0,.409.449h7.882a.431.431,0,0,0,.409-.449v-2.607l-1.344-2.9Zm-1.861,4.66a1.652,1.652,0,1,1,1.652-1.652A1.652,1.652,0,0,1,69.916,133.234Z" transform="translate(-64.068 -124.876)"/><path class="a" d="M9.914,45.168a13.355,13.355,0,0,0-4.066-.592,13.545,13.545,0,0,0-4.066.592A2.7,2.7,0,0,0,0,47.385a1.429,1.429,0,0,0,.337.945H2.231c.113,0,.359-.489.359-.689A2.974,2.974,0,0,0,2.4,46.8c.011-.242.107-.419.5-.588a9.818,9.818,0,0,1,2.943-.321,9.819,9.819,0,0,1,2.943.321c.394.169.49.346.5.588a2.974,2.974,0,0,0-.186.84c0,.2.247.689.359.689h1.894a1.429,1.429,0,0,0,.337-.945A2.7,2.7,0,0,0,9.914,45.168Z" transform="translate(0 -44.576)"/></g></svg>