<svg xmlns="http://www.w3.org/2000/svg" xmlns:xlink="http://www.w3.org/1999/xlink" width="38.158" height="36.573" viewBox="0 0 38.158 36.573"><defs><style>.a{fill:url(#a);}</style><linearGradient id="a" x1="-0.083" y1="1.458" x2="0.864" y2="0.184" gradientUnits="objectBoundingBox"><stop offset="0" stop-color="#fbc900"/><stop offset="1" stop-color="#e9551c"/></linearGradient></defs><path class="a" d="M10.671,36.569H4.251a.209.209,0,0,1-.2-.139L0,25.153H0L4.038,13.869a.209.209,0,0,1,.2-.139h6.3a.136.136,0,0,1,.136.136ZM22.587,2.529h-3.26l-3.34,11.563V34.044H31.4l4.236-15.08V13.791H22.587V2.529M24.789,0a.345.345,0,0,1,.345.345V11.262H37.81a.345.345,0,0,1,.345.345v7.657a.393.393,0,0,1,0,.092L33.4,36.32a.367.367,0,0,1-.334.253H13.8a.345.345,0,0,1-.345-.345V13.784a.367.367,0,0,1,.018-.11L17.356.239A.345.345,0,0,1,17.683,0Z"/></svg>