<svg xmlns="http://www.w3.org/2000/svg" width="38.169" height="36.573" viewBox="0 0 38.169 36.573"><defs><style>.a{fill:#bcbcbc;}</style></defs><g transform="translate(0 0)"><path class="a" d="M10.671,60.24H4.251a.209.209,0,0,1-.2-.139L0,48.824H0L4.038,37.539a.209.209,0,0,1,.2-.139h6.3a.136.136,0,0,1,.136.136Z" transform="translate(0 -23.671)"/><path class="a" d="M45.789,2.529V13.791H58.843v5.172l-4.236,15.08H39.189V14.092L42.53,2.529h3.26M47.992,0H40.885a.345.345,0,0,0-.327.239l-3.88,13.435a.367.367,0,0,0-.018.11V36.228a.345.345,0,0,0,.345.345H56.262a.367.367,0,0,0,.334-.253l4.772-16.963a.4.4,0,0,0,0-.1V11.607a.345.345,0,0,0-.345-.345h-12.7V.345A.345.345,0,0,0,47.974,0Z" transform="translate(-23.203 0)"/></g></svg>