<svg xmlns="http://www.w3.org/2000/svg" xmlns:xlink="http://www.w3.org/1999/xlink" width="111.53" height="162.68" viewBox="0 0 111.53 162.68"><defs><style>.a{fill:url(#a);}.b,.d{fill:none;stroke:#fff;stroke-miterlimit:10;}.b{stroke-width:3.65px;}.c{fill:#fff;}.d{stroke-width:3.29px;}</style><linearGradient id="a" x1="-0.028" y1="0.96" x2="1.028" y2="0.04" gradientUnits="objectBoundingBox"><stop offset="0" stop-color="#ed7338"/><stop offset="1" stop-color="#e73a82"/></linearGradient></defs><rect class="a" width="111.53" height="162.68" rx="8.07"/><circle class="b" cx="33.18" cy="33.18" r="33.18" transform="translate(22.59 30.05)"/><circle class="c" cx="3.05" cy="3.05" r="3.05" transform="translate(45.74 39.9)"/><circle class="c" cx="3.05" cy="3.05" r="3.05" transform="translate(59.69 39.9)"/><path class="d" d="M65.54,51.23s-1.79-.59-9.77-.76c-8,.17-9.78.76-9.78.76a2.88,2.88,0,0,0-1.93,2.88c.75,4.77,5.89,7.55,11.71,7.55s11-2.78,11.7-7.55a2.88,2.88,0,0,0-1.93-2.88Z"/><path class="c" d="M44.13,113.93a9.79,9.79,0,0,1,7.21,3,10.25,10.25,0,0,1,0,14.55,10.45,10.45,0,0,1-14.71,0,10.26,10.26,0,0,1,0-14.6,10.4,10.4,0,0,1,7.5-2.95Zm-.2,7.32a2.69,2.69,0,0,0-2,.87,3,3,0,0,0,0,4.21,2.67,2.67,0,0,0,2,.88,2.72,2.72,0,0,0,2-.88,3.07,3.07,0,0,0,0-4.21A2.74,2.74,0,0,0,43.93,121.25Z"/><path class="c" d="M64.86,109.64v24.49H57.44V109.64Zm11.37,4.71-3.63,7.2L78,134.13H69.78l-4.64-12.92,3.37-6.86Z"/></svg>