<svg xmlns="http://www.w3.org/2000/svg" xmlns:xlink="http://www.w3.org/1999/xlink" width="99.979" height="151.748" viewBox="0 0 99.979 151.748"><defs><style>.a{fill:none;}.b{clip-path:url(#a);}.c{fill:url(#b);}</style><clipPath id="a"><path class="a" d="M70.759,128.209a49.989,49.989,0,1,1,49.989-49.989A49.989,49.989,0,0,1,70.759,128.209Zm0-94.78a44.79,44.79,0,1,0,44.776,44.786A44.79,44.79,0,0,0,70.759,33.429Zm-10,11.426a3.055,3.055,0,1,1,.029.043Zm20,0a1.82,1.82,0,1,1-.043.043Zm-10,33.421c-10,0-17.868-5.242-19.039-12.754a6.413,6.413,0,0,1,4.5-6.77c.828-.229,4.156-.928,14.483-1.143,10.426.214,13.768.914,14.6,1.143a6.427,6.427,0,0,1,4.5,6.77c-1.185,7.556-9.012,12.8-19.039,12.8Zm0-15.982c-10.441.229-13.111.957-13.226.985h-.243a2.128,2.128,0,0,0-.871,1.428c.743,5.3,6.67,8.9,14.34,8.9s13.583-3.628,14.4-8.8A2.1,2.1,0,0,0,84.2,63.38H84c-.357-.157-3.271-.828-13.3-1.043Zm-16.568,88.3a13.983,13.983,0,0,1,10.3,4.285,14.64,14.64,0,0,1,0,20.781,14.925,14.925,0,0,1-21.01,0,14.654,14.654,0,0,1,0-20.853,14.854,14.854,0,0,1,10.655-4.171Zm-.286,10.455a3.842,3.842,0,0,0-2.857,1.243,4.285,4.285,0,0,0,0,6.013,3.813,3.813,0,0,0,2.857,1.257,3.885,3.885,0,0,0,2.857-1.257,4.385,4.385,0,0,0,0-6.013,3.914,3.914,0,0,0-2.914-1.2ZM83.8,144.462V179.44H73.144V144.505Zm16.239,6.727-5.185,10.283,7.656,18.01H90.769L84.142,161.03l4.813-9.8Z" transform="translate(-20.77 -28.23)"/></clipPath><linearGradient id="b" x1="-0.028" y1="0.96" x2="1.028" y2="0.04" gradientUnits="objectBoundingBox"><stop offset="0" stop-color="#ed7338"/><stop offset="1" stop-color="#e73a82"/></linearGradient></defs><g transform="translate(0 0)"><g class="b"><rect class="c" width="159.294" height="232.35" rx="8.07" transform="translate(-29.665 -40.32)"/></g></g></svg>