<svg xmlns="http://www.w3.org/2000/svg" width="12.255" height="12.668" viewBox="0 0 12.255 12.668"><defs><style>.a{fill:#1f4798;}</style></defs><g transform="translate(0 0)"><path class="a" d="M80.2,168.453l.841-.442.842.442-.16-.937.681-.663-.941-.138-.421-.853-.42.853-.941.138.68.663Z" transform="translate(-77.91 -161.758)"/><path class="a" d="M141.154,2.03l.659-.346.66.346-.126-.734.534-.519-.737-.108L141.813,0l-.329.668-.737.108.533.519Z" transform="translate(-137.471)"/><path class="a" d="M8.676,55.539l.535-.281.536.281-.1-.6.433-.422-.6-.088-.268-.543-.268.543-.6.088.433.422Z" transform="translate(-8.345 -52.557)"/><path class="a" d="M23.546,24.092a5.788,5.788,0,0,1-7.8,7.795,6.187,6.187,0,1,0,7.8-7.795Z" transform="translate(-15.566 -23.496)"/></g></svg>