<svg xmlns="http://www.w3.org/2000/svg" xmlns:xlink="http://www.w3.org/1999/xlink" width="162.795" height="162.795" viewBox="0 0 162.795 162.795"><defs><style>.a{fill:url(#a);}.b,.c{fill:none;stroke:#fff;stroke-miterlimit:10;}.b{stroke-width:2.69px;}.c{stroke-width:5px;}.d{fill:#fff;}</style><linearGradient id="a" x1="0.081" y1="1.033" x2="0.919" y2="-0.033" gradientUnits="objectBoundingBox"><stop offset="0" stop-color="#1b3d96"/><stop offset="1" stop-color="#52bcc1"/></linearGradient></defs><rect class="a" width="162.795" height="162.795" rx="12"/><ellipse class="b" cx="36.893" cy="36.893" rx="36.893" ry="36.893" transform="translate(44.505 24.259)"/><ellipse class="c" cx="36.893" cy="36.893" rx="36.893" ry="36.893" transform="translate(44.505 24.259)"/><ellipse class="d" cx="3.38" cy="3.38" rx="3.38" ry="3.38" transform="translate(85.76 65.287)"/><ellipse class="d" cx="3.38" cy="3.38" rx="3.38" ry="3.38" transform="translate(70.284 65.287)"/><path class="d" d="M87.369,100.162l-1.292-1.381a.666.666,0,0,1,.1-1.007c1.292-.9,4.7-2.714,11.374-2.714s10.042,1.812,11.374,2.714a.666.666,0,0,1,.1,1.007l-1.292,1.381a.666.666,0,0,1-.812.106c-1.007-.634-3.835-2.015-9.3-2.015s-8.295,1.381-9.3,2.015a.666.666,0,0,1-.942-.106Z" transform="translate(-16.11 -17.83)"/><path class="d" d="M91.286,167.084H82.975v-12.52c0-1.276-.528-1.917-1.625-1.917s-1.552.642-1.552,1.917v12.52H71.519V154.719a10.107,10.107,0,0,1,2.868-7.312,9.977,9.977,0,0,1,14.624.479c1.495,1.787,2.242,4.29,2.242,7.491Z" transform="translate(-13.414 -27.094)"/><path class="d" d="M112.037,144.439a10.976,10.976,0,0,1,8.124,3.4,11.512,11.512,0,0,1-.049,16.314,11.723,11.723,0,0,1-16.484,0,11.081,11.081,0,0,1-3.428-8.173,10.96,10.96,0,0,1,3.428-8.189,11.65,11.65,0,0,1,8.409-3.347Zm-.227,8.206a3.055,3.055,0,0,0-2.267.967,3.323,3.323,0,0,0-.934,2.372,3.25,3.25,0,0,0,.951,2.356,3.022,3.022,0,0,0,2.25.975,3.063,3.063,0,0,0,2.283-.975,3.447,3.447,0,0,0,.008-4.728A3.055,3.055,0,0,0,111.809,152.645Z" transform="translate(-18.794 -27.092)"/></svg>