<svg xmlns="http://www.w3.org/2000/svg" xmlns:xlink="http://www.w3.org/1999/xlink" width="162.795" height="162.795" viewBox="0 0 162.795 162.795"><defs><style>.a{fill:url(#a);}.b,.d{fill:none;stroke:#fff;stroke-miterlimit:10;}.b{stroke-width:5px;}.c{fill:#fff;}.d{stroke-width:4.5px;}</style><linearGradient id="a" x1="0.081" y1="1.033" x2="0.919" y2="-0.033" gradientUnits="objectBoundingBox"><stop offset="0" stop-color="#ed7338"/><stop offset="1" stop-color="#e73a82"/></linearGradient></defs><rect class="a" width="162.795" height="162.795" rx="12"/><ellipse class="b" cx="36.893" cy="36.893" rx="36.893" ry="36.893" transform="translate(44.505 24.259)"/><ellipse class="c" cx="3.388" cy="3.388" rx="3.388" ry="3.388" transform="translate(70.259 35.219)"/><ellipse class="c" cx="3.388" cy="3.388" rx="3.388" ry="3.388" transform="translate(85.76 35.219)"/><path class="d" d="M108.055,58.662s-1.99-.658-10.87-.812c-8.88.187-10.87.812-10.87.812a3.25,3.25,0,0,0-2.145,3.209c.812,5.3,6.548,8.392,13,8.392s12.187-3.1,13-8.392A3.25,3.25,0,0,0,108.055,58.662Z" transform="translate(-15.787 -10.851)"/><path class="c" d="M81.538,144.669a10.927,10.927,0,0,1,8.027,3.363,11.415,11.415,0,0,1-.049,16.184,11.618,11.618,0,0,1-16.354,0,11.374,11.374,0,0,1,0-16.249A11.537,11.537,0,0,1,81.538,144.669Zm-.219,8.124a3.014,3.014,0,0,0-2.25.959,3.4,3.4,0,0,0,0,4.688,3,3,0,0,0,2.234.975,3.03,3.03,0,0,0,2.267-.975,3.42,3.42,0,0,0,0-4.688,3.022,3.022,0,0,0-2.242-.942Z" transform="translate(-13.082 -27.135)"/><path class="c" d="M110.736,138.8v27.225H102.49V138.8Zm12.641,5.232-4.062,8.011,6,13.982h-9.107l-5.183-14.364,3.753-7.629Z" transform="translate(-19.224 -26.034)"/></svg>