<svg xmlns="http://www.w3.org/2000/svg" width="14.783" height="14.783" viewBox="0 0 14.783 14.783"><defs><style>.a{fill:#e63f7a;}</style></defs><g transform="translate(0 0)"><path class="a" d="M112.212,107.938a4.275,4.275,0,1,0,4.275,4.275A4.275,4.275,0,0,0,112.212,107.938Z" transform="translate(-104.821 -104.822)"/><path class="a" d="M226.062,1.78a.89.89,0,1,0-.89-.89A.89.89,0,0,0,226.062,1.78Z" transform="translate(-218.671 0)"/><path class="a" d="M226.062,450.344a.89.89,0,1,0,.89.89A.89.89,0,0,0,226.062,450.344Z" transform="translate(-218.671 -437.342)"/><path class="a" d="M67.469,67.468a.89.89,0,1,0-1.258,0A.89.89,0,0,0,67.469,67.468Z" transform="translate(-64.046 -64.045)"/><path class="a" d="M384.659,384.659a.89.89,0,1,0,1.259,0A.89.89,0,0,0,384.659,384.659Z" transform="translate(-373.3 -373.3)"/><path class="a" d="M.89,225.188a.89.89,0,1,0,.89.89A.89.89,0,0,0,.89,225.188Z" transform="translate(0 -218.686)"/><path class="a" d="M451.234,225.188a.89.89,0,1,0,.89.89A.89.89,0,0,0,451.234,225.188Z" transform="translate(-437.342 -218.686)"/><path class="a" d="M66.21,384.661a.89.89,0,1,0,1.259,0A.89.89,0,0,0,66.21,384.661Z" transform="translate(-64.045 -373.302)"/><path class="a" d="M384.662,66.216a.89.89,0,1,0,1.258,0A.89.89,0,0,0,384.662,66.216Z" transform="translate(-373.302 -64.051)"/></g></svg>