<svg xmlns="http://www.w3.org/2000/svg" xmlns:xlink="http://www.w3.org/1999/xlink" width="111.61" height="162.68" viewBox="0 0 111.61 162.68"><defs><style>.a{fill:url(#a);}.b{fill:#fff;}</style><linearGradient id="a" x1="-0.027" y1="0.96" x2="1.027" y2="0.04" gradientUnits="objectBoundingBox"><stop offset="0" stop-color="#e4ce3f"/><stop offset="1" stop-color="#de8a3c"/></linearGradient></defs><rect class="a" width="111.61" height="162.68" rx="8.07"/><path class="b" d="M75.77,95.48a3.67,3.67,0,0,1-1.66-.41L56,85.56a.09.09,0,0,0-.07,0L37.88,95.07a3.57,3.57,0,0,1-4.1-.55,3.73,3.73,0,0,1-1.05-3.37l3.43-20a.07.07,0,0,0,0-.06L21.62,57a3.69,3.69,0,0,1-1.12-3.34,3.55,3.55,0,0,1,3-2.85l20.2-2.98a.07.07,0,0,0,.06,0l9-18.32a3.57,3.57,0,0,1,6.39,0l9,18.32a.07.07,0,0,0,.06,0L88.5,50.77a3.55,3.55,0,0,1,3,2.85A3.74,3.74,0,0,1,90.36,57L75.85,71.11a.07.07,0,0,0,0,.06l3.42,19.92a4.14,4.14,0,0,1-1.57,3.83,3.54,3.54,0,0,1-1.93.56ZM25.52,54.2a.62.62,0,0,0-.35,1.06L38.79,68.54a3.6,3.6,0,0,1,1,3.16L36.6,90.44a.62.62,0,0,0,.9.65l16.84-8.85a3.58,3.58,0,0,1,3.31,0l16.84,8.85a.62.62,0,0,0,.9-.65L72.17,71.7a3.6,3.6,0,0,1,1-3.16L86.82,55.26a.62.62,0,0,0-.35-1.06L67.65,51.47A3.57,3.57,0,0,1,65,49.52L56.54,32.45a.62.62,0,0,0-1.1,0L47,49.52a3.57,3.57,0,0,1-2.69,1.95Z"/><path class="b" d="M32.53,109.8v24.25H25.09V109.8Z"/><path class="b" d="M44.32,118.57v15.48H36.88V118.57Zm-3.7-8.85a3.62,3.62,0,0,1,2.61,1.07,3.34,3.34,0,0,1,1.11,2.51,3.38,3.38,0,0,1-1.05,2.55,3.7,3.7,0,0,1-2.67,1,3.74,3.74,0,0,1-2.68-1,3.41,3.41,0,0,1-1-2.55,3.37,3.37,0,0,1,1.1-2.51,3.66,3.66,0,0,1,2.58-1.07Z"/><path class="b" d="M56.13,109.6v24.45H48.69V109.6Zm11.39,4.62-3.63,7.22,5.4,12.61H61.06l-4.65-13,3.38-6.88Z"/><path class="b" d="M89.51,125.34H78.24a5.59,5.59,0,0,1-.26-1.57,5.43,5.43,0,0,1,.36-2h3.78a2.35,2.35,0,0,0-2.49-2.21,2.7,2.7,0,0,0-2.27,1.18,5,5,0,0,0-.87,3,6.28,6.28,0,0,0,.6,3.39,3.35,3.35,0,0,0,2,1.31A3.29,3.29,0,0,0,82.72,127h6.62c-2.26,6.88-7.58,7.38-10,7.38a10.15,10.15,0,0,1-7.42-3,10.45,10.45,0,0,1,0-14.69,10.17,10.17,0,0,1,7.45-3,10,10,0,0,1,10.18,10.16A7.833,7.833,0,0,1,89.51,125.34Z"/></svg>