<svg xmlns="http://www.w3.org/2000/svg" xmlns:xlink="http://www.w3.org/1999/xlink" width="101.565" height="152.609" viewBox="0 0 101.565 152.609"><defs><style>.a{fill:none;}.b{clip-path:url(#a);}.c{fill:url(#b);}</style><clipPath id="a"><path class="a" d="M99.464,124.579a5.242,5.242,0,0,1-2.371-.586L71.227,110.411a.128.128,0,0,0-.1,0l-25.78,13.583a5.1,5.1,0,0,1-5.856-.786,5.327,5.327,0,0,1-1.5-4.813l4.9-28.565a.1.1,0,0,0,0-.086L22.124,69.62a5.27,5.27,0,0,1-1.6-4.77,5.07,5.07,0,0,1,4.285-4.071L53.66,56.523a.1.1,0,0,0,.086,0L66.6,30.357a5.1,5.1,0,0,1,9.127,0L88.581,56.523a.1.1,0,0,0,.086,0l28.979,4.2a5.07,5.07,0,0,1,4.285,4.071A5.342,5.342,0,0,1,120.3,69.62L99.578,89.773a.1.1,0,0,0,0,.086l4.885,28.451a5.913,5.913,0,0,1-2.242,5.47A5.056,5.056,0,0,1,99.464,124.579ZM27.694,65.621a.886.886,0,0,0-.5,1.514L46.647,86.1a5.142,5.142,0,0,1,1.428,4.513l-4.556,26.766a.886.886,0,0,0,1.285.928l24.052-12.64a5.113,5.113,0,0,1,4.728,0l24.052,12.64a.886.886,0,0,0,1.285-.928l-4.6-26.766A5.142,5.142,0,0,1,95.751,86.1l19.5-18.967a.886.886,0,0,0-.5-1.514l-26.88-3.9a5.1,5.1,0,0,1-3.785-2.785L72,34.556a.886.886,0,0,0-1.571,0L58.373,58.936a5.1,5.1,0,0,1-3.842,2.785Zm10,79.412v34.635H27.08V145.032Zm16.839,12.526v22.11H43.919v-22.11Zm-5.285-12.64a5.17,5.17,0,0,1,3.728,1.528,4.77,4.77,0,0,1,1.585,3.585,4.828,4.828,0,0,1-1.5,3.642,5.285,5.285,0,0,1-3.813,1.428,5.342,5.342,0,0,1-3.828-1.428,4.87,4.87,0,0,1-1.428-3.642,4.813,4.813,0,0,1,1.571-3.585,5.228,5.228,0,0,1,3.7-1.528Zm22.152-.171v34.921H60.787V144.747Zm16.268,6.6-5.185,10.312,7.713,18.01H78.454L71.813,161.1l4.828-9.826Zm31.422,15.882h-16.1a7.984,7.984,0,0,1-.371-2.242,7.755,7.755,0,0,1,.514-2.857h5.4a3.356,3.356,0,0,0-3.556-3.156,3.856,3.856,0,0,0-3.242,1.685,7.141,7.141,0,0,0-1.243,4.285,8.97,8.97,0,0,0,.857,4.842,4.785,4.785,0,0,0,2.857,1.871,4.7,4.7,0,0,0,5.185-2.057h9.455c-3.228,9.826-10.826,10.541-14.283,10.541a14.5,14.5,0,0,1-10.6-4.285,14.925,14.925,0,0,1,0-20.981,14.525,14.525,0,0,1,10.641-4.285,14.283,14.283,0,0,1,14.54,14.511,11.188,11.188,0,0,1-.057,2.128Z" transform="translate(-20.444 -27.533)"/></clipPath><linearGradient id="b" x1="-0.027" y1="0.96" x2="1.027" y2="0.04" gradientUnits="objectBoundingBox"><stop offset="0" stop-color="#e4ce3f"/><stop offset="1" stop-color="#de8a3c"/></linearGradient></defs><g transform="translate(0 0)"><g class="b"><rect class="c" width="159.409" height="232.35" rx="8.07" transform="translate(-29.2 -39.324)"/></g></g></svg>