<svg xmlns="http://www.w3.org/2000/svg" xmlns:xlink="http://www.w3.org/1999/xlink" width="111.53" height="162.68" viewBox="0 0 111.53 162.68"><defs><style>.a{fill:url(#a);}.b,.c{fill:none;stroke:#fff;stroke-miterlimit:10;}.b{stroke-width:1.96px;}.c{stroke-width:3.65px;}.d{fill:#fff;}</style><linearGradient id="a" x1="-0.028" y1="0.96" x2="1.028" y2="0.04" gradientUnits="objectBoundingBox"><stop offset="0" stop-color="#1b3d96"/><stop offset="1" stop-color="#52bcc1"/></linearGradient></defs><rect class="a" width="111.53" height="162.68" rx="8.07"/><circle class="b" cx="33.18" cy="33.18" r="33.18" transform="translate(22.59 30.05)"/><circle class="c" cx="33.18" cy="33.18" r="33.18" transform="translate(22.59 30.05)"/><circle class="d" cx="3.04" cy="3.04" r="3.04" transform="translate(59.69 66.94)"/><circle class="d" cx="3.04" cy="3.04" r="3.04" transform="translate(45.77 66.94)"/><path class="d" d="M46.65,82.27,45.48,81a.59.59,0,0,1,.1-.9c1.16-.82,4.22-2.45,10.19-2.45s9,1.63,10.19,2.45a.6.6,0,0,1,.09.9l-1.17,1.24a.59.59,0,0,1-.75.1c-.91-.57-3.45-1.81-8.36-1.81s-7.46,1.24-8.37,1.81a.59.59,0,0,1-.75-.07Z"/><path class="d" d="M52.6,134.13H45.12V122.87c0-1.15-.48-1.72-1.42-1.72s-1.4.57-1.4,1.72v11.26H34.82V123a9.09,9.09,0,0,1,2.58-6.57,8.44,8.44,0,0,1,6.32-2.67,8.47,8.47,0,0,1,6.86,3.1,10.25,10.25,0,0,1,2,6.74Z"/><path class="d" d="M66.42,113.77a9.87,9.87,0,0,1,7.27,3,10.35,10.35,0,0,1,0,14.67,10.55,10.55,0,0,1-14.83,0,10,10,0,0,1-3.08-7.35,9.84,9.84,0,0,1,3.08-7.37,10.45,10.45,0,0,1,7.56-2.95Zm-.2,7.38a2.73,2.73,0,0,0-2,.87,3.09,3.09,0,0,0,0,4.25,2.7,2.7,0,0,0,2,.88,2.74,2.74,0,0,0,2-.88,3.094,3.094,0,0,0,.01-4.25,2.76,2.76,0,0,0-2.01-.87Z"/></svg>